<!DOCTYPE svg PUBLIC "-//W3C//DTD SVG 1.1//EN" "http://www.w3.org/Graphics/SVG/1.1/DTD/svg11.dtd">
<!-- Uploaded to: SVG Repo, www.svgrepo.com, Transformed by: SVG Repo Mixer Tools -->
<svg width="800px" height="800px" viewBox="0 0 64 64" data-name="Layer 1" id="Layer_1" xmlns="http://www.w3.org/2000/svg" fill="#000000">
<g id="SVGRepo_bgCarrier" stroke-width="0"/>
<g id="SVGRepo_tracerCarrier" stroke-linecap="round" stroke-linejoin="round"/>
<g id="SVGRepo_iconCarrier">
<defs>
<style> .cls-1 { fill: #f76c5e; } .cls-2 { fill: #e7ecef; } .cls-3 { fill: #ffbc0a; } .cls-4 { fill: #c4c4c4; } .cls-5 { fill: #bc6c25; } .cls-6 { fill: #a3cef1; } .cls-7 { fill: #dda15e; } .cls-8 { fill: #6096ba; } .cls-9 { fill: #274c77; } </style>
</defs>
<circle class="cls-9" cx="46" cy="17" r="13"/>
<circle class="cls-8" cx="46" cy="17" r="9"/>
<rect class="cls-2" height="8" width="2" x="45" y="4"/>
<rect class="cls-2" height="2" width="8" x="33" y="16"/>
<rect class="cls-2" height="2" width="8" x="51" y="16"/>
<circle class="cls-2" cx="46" cy="17" r="5"/>
<path class="cls-7" d="M26.58,40.04l-3,1.29c-1.01,.43-2.15,.43-3.15,0l-3-1.29c-1.47-.63-2.42-2.08-2.42-3.68v-5.36c0-3.31,2.69-6,6-6h2c3.31,0,6,2.69,6,6v5.36c0,1.6-.95,3.05-2.42,3.68Z"/>
<path class="cls-9" d="M35.14,46c-1.82-1.85-4.35-3-7.14-3h-3c0,1.66-1.34,3-3,3s-3-1.34-3-3h-3c-5.52,0-10,4.48-10,10v7H28l4-14h3.14Z"/>
<path class="cls-7" d="M17,56h2c1.1,0,2,.9,2,2v2h-4v-4h0Z"/>
<path class="cls-9" d="M12,32.73c-.29,.17-.64,.27-1,.27-1.1,0-2-.9-2-2s.9-2,2-2c.42,0,.81,.13,1.14,.36"/>
<path class="cls-9" d="M32,32.73c.29,.17,.64,.27,1,.27,1.1,0,2-.9,2-2s-.9-2-2-2c-.42,0-.81,.13-1.14,.36"/>
<path class="cls-5" d="M19,40.71l1.42,.61c1.01,.44,2.15,.44,3.16,0l1.42-.61v2.29c0,1.66-1.34,3-3,3s-3-1.34-3-3v-2.29Z"/>
<polyline class="cls-4" points="28 60 32 46 54 46 50 60"/>
<path class="cls-9" d="M28.4,28.38h-.01c-.57-.23-1.23-.38-2.06-.38-4.33,0-4.33,4-8.67,4-1.13,0-1.97-.27-2.66-.67v-.33c0-3.31,2.69-6,6-6h2c2.37,0,4.42,1.38,5.39,3.38h.01Z"/>
<path class="cls-2" d="M29,35.6v-4.6c0-3.31-2.69-6-6-6h-2c-3.31,0-6,2.69-6,6v4h-2c-.55,0-1-.45-1-1v-3c0-5.52,4.48-10,10-10,2.76,0,5.26,1.12,7.07,2.93s2.93,4.31,2.93,7.07v3.18c0,.48-.34,.89-.8,.98l-2.2,.44Z"/>
<path class="cls-6" d="M41,52c.55,0,1,.45,1,1s-.45,1-1,1v-2Z"/>
<path class="cls-8" d="M22,37h0c-.11-.54,.24-1.07,.78-1.18l8.22-1.64v-2.86c0-4.79-3.61-8.98-8.38-9.3-5.24-.35-9.62,3.81-9.62,8.98v3h2v2h-2c-1.1,0-2-.9-2-2v-2.68c0-5.72,4.24-10.74,9.94-11.27,6.54-.62,12.06,4.53,12.06,10.95v3.18c0,.95-.67,1.77-1.61,1.96l-8.22,1.64c-.54,.11-1.07-.24-1.18-.78Z"/>
<path class="cls-8" d="M22,60h-2v-2c0-.55-.45-1-1-1h-7c-.55,0-1-.45-1-1v-4c0-.27,.11-.52,.29-.71l1.29-1.29c.39-.39,1.02-.39,1.41,0h0c.39,.39,.39,1.02,0,1.41l-1,1v2.59h6c1.66,0,3,1.34,3,3v2Z"/>
<rect class="cls-6" height="2" width="50" x="4" y="59"/>
<path class="cls-3" d="M49.6,21.8l-1.2-1.6c1-.75,1.6-1.95,1.6-3.2,0-2.21-1.79-4-4-4s-4,1.79-4,4c0,1.25,.6,2.45,1.6,3.2l-1.2,1.6c-1.5-1.13-2.4-2.92-2.4-4.8,0-3.31,2.69-6,6-6s6,2.69,6,6c0,1.88-.9,3.67-2.4,4.8Z"/>
<path class="cls-4" d="M49.33,26.42l-.66-1.89c3.19-1.12,5.33-4.15,5.33-7.54,0-4.41-3.59-8-8-8s-8,3.59-8,8c0,3.39,2.14,6.42,5.33,7.54l-.66,1.89c-3.99-1.4-6.67-5.19-6.67-9.42,0-5.51,4.49-10,10-10s10,4.49,10,10c0,4.23-2.68,8.02-6.67,9.42Z"/>
<path class="cls-1" d="M49.23,30.62l-.46-1.95c5.43-1.28,9.23-6.08,9.23-11.68,0-6.62-5.38-12-12-12s-12,5.38-12,12c0,5.59,3.8,10.4,9.23,11.68l-.46,1.95c-6.34-1.49-10.77-7.1-10.77-13.62,0-7.72,6.28-14,14-14s14,6.28,14,14c0,6.53-4.43,12.13-10.77,13.62Z"/>
<path class="cls-9" d="M48,44l-2-2-2,2v-7c0-.55,.45-1,1-1h2c.55,0,1,.45,1,1v7Z"/>
<path class="cls-5" d="M47,36h-2V18c0-.55,.45-1,1-1h0c.55,0,1,.45,1,1v18Z"/>
</g>
</svg>