<svg xmlns="http://www.w3.org/2000/svg" shape-rendering="geometricPrecision" text-rendering="geometricPrecision" image-rendering="optimizeQuality" fill-rule="evenodd" clip-rule="evenodd" viewBox="0 0 423 511.96"><path fill="#4D4D4D" fill-rule="nonzero" d="M211.5 0c58.4 0 111.28 23.68 149.55 61.95C399.32 100.22 423 153.1 423 211.5c0 58.4-23.68 111.28-61.95 149.55C322.78 399.32 269.9 423 211.5 423c-58.39 0-111.28-23.68-149.55-61.95C23.68 322.78 0 269.89 0 211.5c0-58.4 23.68-111.28 61.95-149.55C100.22 23.68 153.1 0 211.5 0z"/><path fill="#fff" fill-rule="nonzero" d="M211.49 16.18c53.93 0 102.78 21.87 138.11 57.21 35.34 35.33 57.22 84.17 57.22 138.11 0 53.93-21.88 102.77-57.22 138.1-35.33 35.34-84.18 57.22-138.11 57.22-53.86 0-102.7-21.89-138.05-57.25-35.38-35.3-57.26-84.14-57.26-138.07 0-53.94 21.87-102.78 57.21-138.11 35.33-35.34 84.17-57.21 138.1-57.21z"/><path fill="#F93" fill-rule="nonzero" d="M211.49 32.71c98.76 0 178.8 80.04 178.8 178.79 0 98.74-80.04 178.79-178.8 178.79-98.74 0-178.78-80.05-178.78-178.79 0-98.75 80.04-178.79 178.78-178.79z"/><path fill="#fff" fill-rule="nonzero" d="M48.88 137.12h325.24c10.38 22.64 16.17 47.83 16.17 74.38 0 26.54-5.79 51.73-16.17 74.37H48.88c-10.38-22.64-16.17-47.83-16.17-74.37 0-26.55 5.79-51.74 16.17-74.38z"/><path fill="#128807" fill-rule="nonzero" d="M48.88 285.87h325.24c-28.22 61.61-90.42 104.42-162.63 104.42-72.19 0-134.39-42.81-162.61-104.42z"/><path fill="#008" fill-rule="nonzero" d="M271 211.5c0-32.87-26.64-59.51-59.51-59.51-32.85 0-59.5 26.64-59.5 59.51 0 32.86 26.65 59.5 59.5 59.5 32.87 0 59.51-26.64 59.51-59.5z"/><path fill="#fff" fill-rule="nonzero" d="M263.57 211.5c0-28.76-23.32-52.06-52.08-52.06-28.74 0-52.06 23.3-52.06 52.06 0 28.75 23.32 52.07 52.06 52.07 28.76 0 52.08-23.32 52.08-52.07z"/><path fill="#008" fill-rule="nonzero" d="M221.9 210.97c-.03-.56-.11-1.11-.21-1.65l10.38-1.49 29.72-9.81-30.63 6.37-9.75 3.9c-.17-.52-.39-1.03-.64-1.53l9.66-4.12 26.16-17.17-27.94 14.07-8.42 6.3c-.3-.47-.64-.91-1-1.32l8.27-6.49 20.81-23.35-23.34 20.83-6.49 8.25c-.42-.36-.85-.7-1.32-1l6.31-8.4 14.06-27.95-17.17 26.17-4.12 9.64c-.49-.25-1-.46-1.53-.63l3.9-9.75 6.36-30.64-9.8 29.72-1.49 10.4c-.54-.12-1.09-.19-1.65-.21l1.26-10.43-1.8-31.24-1.78 31.24 1.26 10.43c-.56.02-1.11.09-1.65.21l-1.49-10.4-9.81-29.72 6.37 30.64 3.9 9.75c-.52.17-1.03.38-1.53.63l-4.12-9.64-17.17-26.17 14.07 27.95 6.3 8.4c-.47.3-.9.64-1.32 1l-6.49-8.25-23.35-20.83 20.83 23.35 8.27 6.49c-.39.41-.73.85-1.03 1.32l-8.4-6.3-27.94-14.07 26.17 17.17 9.64 4.12c-.25.5-.46 1.01-.63 1.53l-9.75-3.9-30.64-6.37 29.71 9.81 10.41 1.49c-.12.54-.19 1.09-.21 1.65l-10.43-1.25-31.25 1.78 31.25 1.79 10.43-1.26c.02.56.09 1.11.21 1.65l-10.41 1.48-29.71 9.81 30.64-6.36 9.75-3.91c.17.54.38 1.05.63 1.53l-9.64 4.14-26.17 17.16 27.94-14.08 8.4-6.29c.3.47.64.9 1.03 1.32l-8.27 6.48-20.83 23.35 23.35-20.83 6.49-8.25c.42.36.85.7 1.32 1l-6.3 8.42-14.07 27.94 17.17-26.16 4.12-9.66c.5.25 1.01.47 1.53.64l-3.9 9.75-6.37 30.63 9.81-29.71 1.49-10.39c.54.1 1.09.18 1.65.21l-1.26 10.42 1.78 31.25 1.8-31.25-1.26-10.42c.56-.03 1.11-.11 1.65-.21l1.49 10.39 9.8 29.71-6.36-30.63-3.9-9.75c.53-.18 1.04-.39 1.53-.64l4.12 9.66 17.17 26.16-14.08-27.94-6.29-8.42c.47-.3.9-.64 1.32-1l6.49 8.25 23.34 20.83-20.81-23.35-8.27-6.49c.36-.41.7-.84 1-1.31l8.42 6.29 27.94 14.08-26.16-17.16-9.66-4.14c.25-.48.47-.99.64-1.53l9.75 3.91 30.63 6.36-29.72-9.81-10.38-1.48c.11-.54.18-1.09.21-1.65l10.42 1.26 31.25-1.79-31.25-1.78-10.42 1.25zm43.8-6.61a2.583 2.583 0 0 0-2.92-2.23 2.586 2.586 0 0 0-2.24 2.91c.19 1.43 1.5 2.44 2.92 2.24a2.59 2.59 0 0 0 2.24-2.92zm-3.69-13.79c-.55-1.32-2.08-1.94-3.4-1.4a2.613 2.613 0 0 0-1.42 3.41 2.619 2.619 0 0 0 3.41 1.4 2.608 2.608 0 0 0 1.41-3.41zm-7.13-12.35a2.591 2.591 0 0 0-3.65-.48 2.602 2.602 0 0 0-.49 3.65 2.621 2.621 0 0 0 3.66.48c1.13-.87 1.34-2.51.48-3.65zm-10.1-10.1a2.61 2.61 0 0 0-3.65.49 2.6 2.6 0 0 0 .48 3.65c1.14.87 2.78.65 3.65-.49a2.6 2.6 0 0 0-.48-3.65zm-12.35-7.13c-1.34-.55-2.85.08-3.42 1.42a2.605 2.605 0 1 0 4.82 1.98c.55-1.33-.08-2.85-1.4-3.4zm-13.79-3.69a2.59 2.59 0 0 0-2.92 2.24c-.2 1.43.81 2.73 2.24 2.92 1.42.18 2.73-.81 2.91-2.24a2.6 2.6 0 0 0-2.23-2.92zm-14.28 0c-1.42.19-2.43 1.5-2.23 2.92a2.593 2.593 0 0 0 2.91 2.24 2.588 2.588 0 0 0 2.24-2.92 2.59 2.59 0 0 0-2.92-2.24zm-13.79 3.69a2.604 2.604 0 0 0-1.4 3.4 2.613 2.613 0 0 0 3.41 1.42c1.32-.55 1.94-2.08 1.4-3.4a2.604 2.604 0 0 0-3.41-1.42zm-12.35 7.13a2.591 2.591 0 0 0-.48 3.65 2.61 2.61 0 0 0 3.65.49 2.6 2.6 0 0 0 .48-3.65 2.61 2.61 0 0 0-3.65-.49zm-10.1 10.1a2.61 2.61 0 0 0 .49 3.65c1.13.87 2.77.66 3.65-.48a2.61 2.61 0 0 0-.49-3.65 2.591 2.591 0 0 0-3.65.48zm-7.13 12.35c-.55 1.34.08 2.86 1.41 3.41 1.33.55 2.86-.08 3.41-1.4.55-1.34-.1-2.86-1.42-3.42-1.33-.55-2.85.09-3.4 1.41zm-3.69 13.79a2.59 2.59 0 0 0 2.24 2.92c1.43.2 2.73-.81 2.92-2.24.18-1.42-.81-2.73-2.24-2.91-1.43-.2-2.73.81-2.92 2.23zm0 14.28a2.61 2.61 0 0 0 2.92 2.24 2.608 2.608 0 0 0-.68-5.17c-1.43.19-2.43 1.5-2.24 2.93zm3.69 13.78a2.6 2.6 0 0 0 3.4 1.41c1.32-.55 1.97-2.08 1.42-3.4a2.608 2.608 0 1 0-4.82 1.99zm7.13 12.36a2.6 2.6 0 0 0 3.65.48 2.61 2.61 0 0 0 .49-3.65c-.88-1.14-2.52-1.36-3.65-.48a2.61 2.61 0 0 0-.49 3.65zm10.1 10.09c1.14.87 2.78.66 3.65-.47.88-1.16.66-2.78-.48-3.65a2.597 2.597 0 0 0-3.65.47c-.88 1.15-.67 2.78.48 3.65zm12.35 7.14c1.34.55 2.86-.08 3.41-1.41.54-1.32-.08-2.85-1.4-3.4a2.6 2.6 0 0 0-3.41 1.41c-.55 1.32.08 2.85 1.4 3.4zm13.79 3.69c1.43.18 2.74-.81 2.92-2.24.2-1.42-.81-2.73-2.24-2.93-1.42-.18-2.73.83-2.91 2.25-.2 1.43.81 2.74 2.23 2.92zm14.28 0a2.59 2.59 0 0 0 2.23-2.92 2.608 2.608 0 0 0-2.91-2.25c-1.43.2-2.44 1.51-2.24 2.93.18 1.43 1.49 2.42 2.92 2.24zm13.79-3.69a2.608 2.608 0 0 0 1.4-3.4 2.592 2.592 0 0 0-3.4-1.41c-1.33.55-1.97 2.08-1.42 3.4a2.62 2.62 0 0 0 3.42 1.41zm12.35-7.14c1.14-.87 1.36-2.5.48-3.65a2.597 2.597 0 0 0-3.65-.47 2.596 2.596 0 0 0-.48 3.65c.87 1.13 2.51 1.34 3.65.47zm10.09-10.09c.87-1.14.66-2.77-.47-3.65a2.612 2.612 0 0 0-3.66.48c-.87 1.14-.66 2.78.48 3.65 1.15.88 2.78.66 3.65-.48zm7.14-12.36c.55-1.33-.08-2.86-1.41-3.41-1.32-.55-2.86.1-3.41 1.42-.54 1.33.08 2.85 1.42 3.4 1.32.55 2.85-.08 3.4-1.41zm3.69-13.78c.19-1.43-.81-2.74-2.24-2.93-1.42-.19-2.73.82-2.92 2.25-.19 1.42.81 2.73 2.24 2.92 1.43.18 2.74-.82 2.92-2.24z"/><path fill="#4D4D4D" fill-rule="nonzero" d="M87.68 325.03H335.3c14.71 0 24.95 11.89 26.91 26.91l20.46 133.11c0 14.71-12.2 26.91-26.91 26.91H67.22c-14.76 0-26.9-12.15-26.9-26.91l20.46-133.11c3.36-15.67 12.86-26.91 26.9-26.91z"/><path fill="#fff" d="M85.79 335.92H337.2c7.77 0 13 6.58 14.13 14.13l20.46 136.89c1.13 7.57-6.48 14.13-14.12 14.13H65.34c-7.65 0-15.28-6.44-14.13-14.13l20.46-136.89c1.15-7.69 6.35-14.13 14.12-14.13z"/><path fill="#333" fill-rule="nonzero" d="M128.27 401.41h-9.32v-38.34h11.41l6.22 20.49 6.2-20.49h11.42v38.34h-9.26v-24.37l-4.78 16.07h-7.17l-4.72-15.95v24.25zm50.24 0-1.2-5.73h-9.2l-1.26 5.73h-10.27l9.85-38.34h12.73l9.86 38.34h-10.51zm-8.78-13.14h5.97l-2.93-13.79-3.04 13.79zm22.27-25.2h17.62c5.86 0 8.78 2.46 8.78 7.4v23.54c0 4.93-2.92 7.4-8.78 7.4H192v-38.34zm15.95 30.15v-21.98c0-.87-.5-1.3-1.49-1.3h-4.01v24.61h4.01c.99 0 1.49-.45 1.49-1.33zm25.51.72h13.09v7.47h-23.54v-38.34h23v7.45h-12.55v7.84h10.81v7.46h-10.81v8.12zm28.31-30.87h10.46v38.34h-10.46v-38.34zm32.73 0h9.56v38.34h-8.96l-8.55-20.13v20.13H277v-38.34h8.97l8.53 20.49v-20.49z"/><path fill="#128807" fill-rule="nonzero" d="M123.05 422.38h14.64v53.7h-14.64v-53.7zm46.67 0h13.38v53.7h-12.54l-11.96-28.19v28.19h-13.39v-53.7h12.55l11.96 28.69v-28.69zm21.76 0h24.67c8.21 0 12.3 3.45 12.3 10.37v32.96c0 6.92-4.09 10.37-12.3 10.37h-24.67v-53.7zm22.33 42.24v-30.78c0-1.23-.69-1.85-2.09-1.85h-5.6v34.48h5.6c1.4 0 2.09-.62 2.09-1.85zm21.91-42.24h14.65v53.7h-14.65v-53.7zm49.53 53.7-1.68-8.03h-12.89l-1.75 8.03h-14.39l13.8-53.7h17.82l13.8 53.7h-14.71zm-12.3-18.41h8.36l-4.1-19.32-4.26 19.32z"/></svg>